<?xml version="1.0" encoding="UTF-8" standalone="no"?>
<!-- Created with Inkscape (http://www.inkscape.org/) -->

<svg
   xmlns:dc="http://purl.org/dc/elements/1.1/"
   xmlns:cc="http://creativecommons.org/ns#"
   xmlns:rdf="http://www.w3.org/1999/02/22-rdf-syntax-ns#"
   xmlns:svg="http://www.w3.org/2000/svg"
   xmlns="http://www.w3.org/2000/svg"
   xmlns:sodipodi="http://sodipodi.sourceforge.net/DTD/sodipodi-0.dtd"
   xmlns:inkscape="http://www.inkscape.org/namespaces/inkscape"
   width="744.09448819"
   height="1052.3622047"
   id="svg3680"
   version="1.1"
   inkscape:version="0.47 r22583"
   sodipodi:docname="Neues Dokument 6">
  <sodipodi:namedview
     id="base"
     pagecolor="#ffffff"
     bordercolor="#ffffff"
     borderopacity="0.0"
     inkscape:pageopacity="0.0"
     inkscape:pageshadow="0"
     inkscape:zoom="0.35"
     inkscape:cx="350.78684"
     inkscape:cy="748.58266"
     inkscape:document-units="px"
     inkscape:current-layer="layer1"
     showgrid="false"
     inkscape:window-width="1280"
     inkscape:window-height="962"
     inkscape:window-x="-8"
     inkscape:window-y="-8"
     inkscape:window-maximized="1" />
  <defs
     id="defs3682">
    <inkscape:perspective
       id="perspective3688"
       inkscape:persp3d-origin="372.04724 : 350.78739 : 1"
       inkscape:vp_z="744.09448 : 526.18109 : 1"
       inkscape:vp_y="0 : 1000 : 0"
       inkscape:vp_x="0 : 526.18109 : 1"
       sodipodi:type="inkscape:persp3d" />
    <inkscape:perspective
       sodipodi:type="inkscape:persp3d"
       inkscape:vp_x="0 : 0.5 : 1"
       inkscape:vp_y="0 : 1000 : 0"
       inkscape:vp_z="1 : 0.5 : 1"
       inkscape:persp3d-origin="0.5 : 0.33333333 : 1"
       id="perspective3585" />
    <clipPath
       id="clipPath3148"
       clipPathUnits="userSpaceOnUse">
      <path
         id="path3150"
         clip-rule="evenodd"
         d="M 0,0 780,0 780,540 0,540 0,0 z" />
    </clipPath>
    <clipPath
       id="clipPath3160"
       clipPathUnits="userSpaceOnUse">
      <path
         id="path3162"
         clip-rule="evenodd"
         d="M 0,0 780,0 780,540 0,540 0,0 z" />
    </clipPath>
    <clipPath
       id="clipPath3172"
       clipPathUnits="userSpaceOnUse">
      <path
         id="path3174"
         clip-rule="evenodd"
         d="M 0,0 780,0 780,540 0,540 0,0 z" />
    </clipPath>
    <clipPath
       id="clipPath3186"
       clipPathUnits="userSpaceOnUse">
      <path
         id="path3188"
         clip-rule="evenodd"
         d="M 0,0 780,0 780,540 0,540 0,0 z" />
    </clipPath>
    <clipPath
       id="clipPath3200"
       clipPathUnits="userSpaceOnUse">
      <path
         id="path3202"
         clip-rule="evenodd"
         d="M 0,0 780,0 780,540 0,540 0,0 z" />
    </clipPath>
    <clipPath
       id="clipPath3218"
       clipPathUnits="userSpaceOnUse">
      <path
         id="path3220"
         clip-rule="evenodd"
         d="M 0,0 780,0 780,540 0,540 0,0 z" />
    </clipPath>
    <clipPath
       id="clipPath3266"
       clipPathUnits="userSpaceOnUse">
      <path
         id="path3268"
         clip-rule="evenodd"
         d="M 0,0 780,0 780,540 0,540 0,0 z" />
    </clipPath>
    <clipPath
       id="clipPath3278"
       clipPathUnits="userSpaceOnUse">
      <path
         id="path3280"
         clip-rule="evenodd"
         d="M 0,0 780,0 780,540 0,540 0,0 z" />
    </clipPath>
    <clipPath
       id="clipPath3290"
       clipPathUnits="userSpaceOnUse">
      <path
         id="path3292"
         clip-rule="evenodd"
         d="M 0,0 780,0 780,540 0,540 0,0 z" />
    </clipPath>
    <clipPath
       id="clipPath3302"
       clipPathUnits="userSpaceOnUse">
      <path
         id="path3304"
         clip-rule="evenodd"
         d="M 0,0 780,0 780,540 0,540 0,0 z" />
    </clipPath>
    <clipPath
       id="clipPath3314"
       clipPathUnits="userSpaceOnUse">
      <path
         id="path3316"
         clip-rule="evenodd"
         d="M 0,0 780,0 780,540 0,540 0,0 z" />
    </clipPath>
  </defs>
  <metadata
     id="metadata3685">
    <rdf:RDF>
      <cc:Work
         rdf:about="">
        <dc:format>image/svg+xml</dc:format>
        <dc:type
           rdf:resource="http://purl.org/dc/dcmitype/StillImage" />
        <dc:title></dc:title>
      </cc:Work>
    </rdf:RDF>
  </metadata>
  <g
     id="layer1"
     inkscape:groupmode="layer"
     inkscape:label="Layer 1">
    <g
       id="g3440"
       transform="matrix(1.25,0,0,-1.25,273.12779,747.75622)">
      <path
         d="m 75.814,188.4 212.5,0 0,212.5 -212.5,0 0,-212.5 z"
         style="fill:#dddddd;fill-opacity:1;fill-rule:evenodd;stroke:none"
         id="path3130" />
      <path
         d="m 75.814,188.4 212.5,0 0,212.5 -212.5,0 0,-212.5 z"
         style="fill:none;stroke:#000000;stroke-width:0.85000002;stroke-linecap:butt;stroke-linejoin:miter;stroke-miterlimit:8;stroke-opacity:1;stroke-dasharray:none"
         id="path3132" />
      <path
         d="m 300.86,390.28 0,-191.75 -1.35,0 0,191.75 1.35,0 z m -5.67,-1 5,10 5,-10 -10,0 z m 10,-189.75 -5,-10 -5,10 10,0 z"
         style="fill:#000000;fill-opacity:1;fill-rule:nonzero;stroke:none"
         id="path3134" />
      <path
         d="m 275.06,172.85 -191.745,0 0,1.35 191.745,0 0,-1.35 z m -1,5.68 10,-5 -10,-5 0,10 z m -189.746,-10 -9.999,5 9.999,5 0,-10 z"
         style="fill:#000000;fill-opacity:1;fill-rule:nonzero;stroke:none"
         id="path3136" />
      <path
         d="m 170.32,155.97 -87.005,-0.11 -0.001,1.35 86.996,0.11 0.01,-1.35 z m -1.01,5.67 10,-4.99 -9.99,-5.01 -0.01,10 z m -84.99,-10.1 -10.006,4.99 9.994,5.01 0.012,-10 z"
         style="fill:#000000;fill-opacity:1;fill-rule:nonzero;stroke:none"
         id="path3138" />
      <g
         id="g3140">
        <path
           d="m 178.56,404.15 0,-256"
           style="fill:none;stroke:#000000;stroke-width:1.25;stroke-linecap:butt;stroke-linejoin:round;stroke-miterlimit:8;stroke-opacity:1;stroke-dasharray:1.25, 1.25;stroke-dashoffset:0"
           id="path3142" />
      </g>
      <g
         id="g3144">
        <g
           id="g3146"
           clip-path="url(#clipPath3148)">
          <text
             transform="matrix(1,0,0,-1,113.28,141.17)"
             id="text3152">
            <tspan
               style="font-size:14.06400013px;font-variant:normal;font-weight:normal;writing-mode:lr-tb;fill:#000000;fill-opacity:1;fill-rule:nonzero;stroke:none;font-family:Arial;-inkscape-font-specification:Arial"
               x="0 7.799984 15.599968"
               y="0"
               sodipodi:role="line"
               id="tspan3154">150</tspan>
          </text>
        </g>
      </g>
      <g
         id="g3156">
        <g
           id="g3158"
           clip-path="url(#clipPath3160)">
          <text
             transform="matrix(1,0,0,-1,306.07,293.45)"
             id="text3164">
            <tspan
               style="font-size:14.03999996px;font-variant:normal;font-weight:normal;writing-mode:lr-tb;fill:#000000;fill-opacity:1;fill-rule:nonzero;stroke:none;font-family:Arial;-inkscape-font-specification:Arial"
               x="0 7.8000002 15.6"
               y="0"
               sodipodi:role="line"
               id="tspan3166">300</tspan>
          </text>
        </g>
      </g>
      <g
         id="g3168">
        <g
           id="g3170"
           clip-path="url(#clipPath3172)">
          <text
             transform="matrix(1,0,0,-1,217.92,155.4)"
             id="text3176">
            <tspan
               style="font-size:14.03999996px;font-variant:normal;font-weight:normal;writing-mode:lr-tb;fill:#000000;fill-opacity:1;fill-rule:nonzero;stroke:none;font-family:Arial;-inkscape-font-specification:Arial"
               x="0 7.8000002 15.6"
               y="0"
               sodipodi:role="line"
               id="tspan3178">300</tspan>
          </text>
        </g>
      </g>
      <path
         d="m 216.5,338.9 0.1,-87 -1.35,0 -0.1,87 1.35,0 z m -5.67,-1 4.98,10 5.02,-9.99 -10,-0.01 z m 10.1,-84.99 -4.99,-10.01 -5.01,10 10,0.01 z"
         style="fill:#000000;fill-opacity:1;fill-rule:nonzero;stroke:none"
         id="path3180" />
      <g
         id="g3182">
        <g
           id="g3184"
           clip-path="url(#clipPath3186)">
          <text
             transform="matrix(1,0,0,-1,218.54,304.32)"
             id="text3190">
            <tspan
               style="font-size:14.03999996px;font-variant:normal;font-weight:normal;writing-mode:lr-tb;fill:#000000;fill-opacity:1;fill-rule:nonzero;stroke:none;font-family:Arial;-inkscape-font-specification:Arial"
               x="0 7.8000002 15.6"
               y="0"
               sodipodi:role="line"
               id="tspan3192">150</tspan>
          </text>
        </g>
      </g>
      <path
         d="m 153.39,263.16 0.07,-14.5 -1.35,-0.01 -0.07,14.5 1.35,0.01 z m -3.67,-1.02 2.97,6.01 3.03,-5.98 -6,-0.03 z m 6.06,-12.47 -2.97,-6.02 -3.03,5.99 6,0.03 z"
         style="fill:#000000;fill-opacity:1;fill-rule:nonzero;stroke:none"
         id="path3194" />
      <g
         id="g3196">
        <g
           id="g3198"
           clip-path="url(#clipPath3200)">
          <text
             transform="matrix(1,0,0,-1,118.3,251.06)"
             id="text3204">
            <tspan
               style="font-size:14.03999996px;font-variant:normal;font-weight:normal;writing-mode:lr-tb;fill:#000000;fill-opacity:1;fill-rule:nonzero;stroke:none;font-family:Arial;-inkscape-font-specification:Arial"
               x="0 7.8062401 15.61248 19.54368"
               y="0"
               sodipodi:role="line"
               id="tspan3206">37,5</tspan>
          </text>
        </g>
      </g>
      <path
         d="m 91,389.78 0.103,-84.88 -1.35,0 -0.103,84.88 1.35,0 z m -5.673,-1.01 4.987,10.01 5.013,-10 -10,-0.01 z m 10.1,-82.86 -4.988,-10.01 -5.012,10 10,0.01 z"
         style="fill:#000000;fill-opacity:1;fill-rule:nonzero;stroke:none"
         id="path3208" />
      <g
         id="g3210">
        <path
           d="M 293.56,295.9 66.814,295.15"
           style="fill:none;stroke:#000000;stroke-width:1.25;stroke-linecap:butt;stroke-linejoin:round;stroke-miterlimit:8;stroke-opacity:1;stroke-dasharray:1.25, 1.25;stroke-dashoffset:0"
           id="path3212" />
      </g>
      <g
         id="g3214">
        <g
           id="g3216"
           clip-path="url(#clipPath3218)">
          <text
             transform="matrix(1,0,0,-1,94.656,347.45)"
             id="text3222">
            <tspan
               style="font-size:14.03999996px;font-variant:normal;font-weight:normal;writing-mode:lr-tb;fill:#000000;fill-opacity:1;fill-rule:nonzero;stroke:none;font-family:Arial;-inkscape-font-specification:Arial"
               x="0 7.8000002 15.6"
               y="0"
               sodipodi:role="line"
               id="tspan3224">150</tspan>
          </text>
        </g>
      </g>
      <path
         d="m 160.81,345.65 34,0"
         style="fill:none;stroke:#969696;stroke-width:1.75;stroke-linecap:butt;stroke-linejoin:round;stroke-miterlimit:8;stroke-opacity:1;stroke-dasharray:none"
         id="path3238" />
      <path
         d="m 158.56,244.78 34,0"
         style="fill:none;stroke:#686868;stroke-width:1.75;stroke-linecap:butt;stroke-linejoin:round;stroke-miterlimit:8;stroke-opacity:1;stroke-dasharray:none"
         id="path3240" />
      <path
         d="m 175.44,345.4 c 0,1.59 1.29,2.88 2.87,2.88 0,0 0,0 0,0 l 0,0 c 1.59,0 2.88,-1.29 2.88,-2.88 0,0 0,0 0,0 l 0,0 c 0,-1.59 -1.29,-2.87 -2.88,-2.87 0,0 0,0 0,0 l 0,0 c -1.58,0 -2.87,1.28 -2.87,2.87 0,0 0,0 0,0 z"
         style="fill:#4c4c4c;fill-opacity:1;fill-rule:evenodd;stroke:none"
         id="path3242" />
      <path
         d="m 175.44,345.4 c 0,1.59 1.29,2.88 2.87,2.88 0,0 0,0 0,0 l 0,0 c 1.59,0 2.88,-1.29 2.88,-2.88 0,0 0,0 0,0 l 0,0 c 0,-1.59 -1.29,-2.87 -2.88,-2.87 0,0 0,0 0,0 l 0,0 c -1.58,0 -2.87,1.28 -2.87,2.87 0,0 0,0 0,0 z"
         style="fill:none;stroke:#4c4c4c;stroke-width:0.85000002;stroke-linecap:butt;stroke-linejoin:round;stroke-miterlimit:8;stroke-opacity:1;stroke-dasharray:none"
         id="path3244" />
      <path
         d="m 175.56,320.28 c 0,1.59 1.29,2.87 2.88,2.87 0,0 0,0 0,0 l 0,0 c 1.59,0 2.87,-1.28 2.87,-2.87 0,0 0,0 0,0 l 0,0 c 0,-1.59 -1.28,-2.88 -2.87,-2.88 0,0 0,0 0,0 l 0,0 c -1.59,0 -2.88,1.29 -2.88,2.88 0,0 0,0 0,0 z"
         style="fill:#4c4c4c;fill-opacity:1;fill-rule:evenodd;stroke:none"
         id="path3246" />
      <path
         d="m 175.56,320.28 c 0,1.59 1.29,2.87 2.88,2.87 0,0 0,0 0,0 l 0,0 c 1.59,0 2.87,-1.28 2.87,-2.87 0,0 0,0 0,0 l 0,0 c 0,-1.59 -1.28,-2.88 -2.87,-2.88 0,0 0,0 0,0 l 0,0 c -1.59,0 -2.88,1.29 -2.88,2.88 0,0 0,0 0,0 z"
         style="fill:none;stroke:#4c4c4c;stroke-width:0.85000002;stroke-linecap:butt;stroke-linejoin:round;stroke-miterlimit:8;stroke-opacity:1;stroke-dasharray:none"
         id="path3248" />
      <path
         d="m 175.56,295.15 c 0,1.59 1.29,2.88 2.88,2.88 0,0 0,0 0,0 l 0,0 c 1.59,0 2.87,-1.29 2.87,-2.88 0,0 0,0 0,0 l 0,0 c 0,-1.59 -1.28,-2.87 -2.87,-2.87 0,0 0,0 0,0 l 0,0 c -1.59,0 -2.88,1.28 -2.88,2.87 0,0 0,0 0,0 z"
         style="fill:#4c4c4c;fill-opacity:1;fill-rule:evenodd;stroke:none"
         id="path3250" />
      <path
         d="m 175.56,295.15 c 0,1.59 1.29,2.88 2.88,2.88 0,0 0,0 0,0 l 0,0 c 1.59,0 2.87,-1.29 2.87,-2.88 0,0 0,0 0,0 l 0,0 c 0,-1.59 -1.28,-2.87 -2.87,-2.87 0,0 0,0 0,0 l 0,0 c -1.59,0 -2.88,1.28 -2.88,2.87 0,0 0,0 0,0 z"
         style="fill:none;stroke:#4c4c4c;stroke-width:0.85000002;stroke-linecap:butt;stroke-linejoin:round;stroke-miterlimit:8;stroke-opacity:1;stroke-dasharray:none"
         id="path3252" />
      <path
         d="m 175.56,270.03 c 0,1.59 1.29,2.87 2.88,2.87 0,0 0,0 0,0 l 0,0 c 1.59,0 2.87,-1.28 2.87,-2.87 0,0 0,0 0,0 l 0,0 c 0,-1.59 -1.28,-2.88 -2.87,-2.88 0,0 0,0 0,0 l 0,0 c -1.59,0 -2.88,1.29 -2.88,2.88 0,0 0,0 0,0 z"
         style="fill:#4c4c4c;fill-opacity:1;fill-rule:evenodd;stroke:none"
         id="path3254" />
      <path
         d="m 175.56,270.03 c 0,1.59 1.29,2.87 2.88,2.87 0,0 0,0 0,0 l 0,0 c 1.59,0 2.87,-1.28 2.87,-2.87 0,0 0,0 0,0 l 0,0 c 0,-1.59 -1.28,-2.88 -2.87,-2.88 0,0 0,0 0,0 l 0,0 c -1.59,0 -2.88,1.29 -2.88,2.88 0,0 0,0 0,0 z"
         style="fill:none;stroke:#4c4c4c;stroke-width:0.85000002;stroke-linecap:butt;stroke-linejoin:round;stroke-miterlimit:8;stroke-opacity:1;stroke-dasharray:none"
         id="path3256" />
      <path
         d="m 175.44,244.78 c 0,1.59 1.29,2.87 2.87,2.87 0,0 0,0 0,0 l 0,0 c 1.59,0 2.88,-1.28 2.88,-2.87 0,0 0,0 0,0 l 0,0 c 0,-1.59 -1.29,-2.88 -2.88,-2.88 0,0 0,0 0,0 l 0,0 c -1.58,0 -2.87,1.29 -2.87,2.88 0,0 0,0 0,0 z"
         style="fill:#4c4c4c;fill-opacity:1;fill-rule:evenodd;stroke:none"
         id="path3258" />
      <path
         d="m 175.44,244.78 c 0,1.59 1.29,2.87 2.87,2.87 0,0 0,0 0,0 l 0,0 c 1.59,0 2.88,-1.28 2.88,-2.87 0,0 0,0 0,0 l 0,0 c 0,-1.59 -1.29,-2.88 -2.88,-2.88 0,0 0,0 0,0 l 0,0 c -1.58,0 -2.87,1.29 -2.87,2.88 0,0 0,0 0,0 z"
         style="fill:none;stroke:#4c4c4c;stroke-width:0.85000002;stroke-linecap:butt;stroke-linejoin:round;stroke-miterlimit:8;stroke-opacity:1;stroke-dasharray:none"
         id="path3260" />
      <g
         id="g3262">
        <g
           id="g3264"
           clip-path="url(#clipPath3266)">
          <text
             transform="matrix(1,0,0,-1,165.67,341.11)"
             id="text3270">
            <tspan
               style="font-size:12px;font-variant:normal;font-weight:bold;writing-mode:lr-tb;fill:#4c4c4c;fill-opacity:1;fill-rule:nonzero;stroke:none;font-family:Arial;-inkscape-font-specification:'Arial,Bold'"
               x="0"
               y="0"
               id="tspan3272">1</tspan>
          </text>
        </g>
      </g>
      <g
         id="g3274">
        <g
           id="g3276"
           clip-path="url(#clipPath3278)">
          <text
             transform="matrix(1,0,0,-1,165.67,315.74)"
             id="text3282">
            <tspan
               style="font-size:12px;font-variant:normal;font-weight:bold;writing-mode:lr-tb;fill:#4c4c4c;fill-opacity:1;fill-rule:nonzero;stroke:none;font-family:Arial;-inkscape-font-specification:'Arial,Bold'"
               x="0"
               y="0"
               id="tspan3284">2</tspan>
          </text>
        </g>
      </g>
      <g
         id="g3286">
        <g
           id="g3288"
           clip-path="url(#clipPath3290)">
          <text
             transform="matrix(1,0,0,-1,165.67,290.35)"
             id="text3294">
            <tspan
               style="font-size:12px;font-variant:normal;font-weight:bold;writing-mode:lr-tb;fill:#4c4c4c;fill-opacity:1;fill-rule:nonzero;stroke:none;font-family:Arial;-inkscape-font-specification:'Arial,Bold'"
               x="0"
               y="0"
               id="tspan3296">3</tspan>
          </text>
        </g>
      </g>
      <g
         id="g3298">
        <g
           id="g3300"
           clip-path="url(#clipPath3302)">
          <text
             transform="matrix(1,0,0,-1,165.67,264.98)"
             id="text3306">
            <tspan
               style="font-size:12px;font-variant:normal;font-weight:bold;writing-mode:lr-tb;fill:#4c4c4c;fill-opacity:1;fill-rule:nonzero;stroke:none;font-family:Arial;-inkscape-font-specification:'Arial,Bold'"
               x="0"
               y="0"
               id="tspan3308">4</tspan>
          </text>
        </g>
      </g>
      <g
         id="g3310">
        <g
           id="g3312"
           clip-path="url(#clipPath3314)">
          <text
             transform="matrix(1,0,0,-1,165.67,239.59)"
             id="text3318">
            <tspan
               style="font-size:12px;font-variant:normal;font-weight:bold;writing-mode:lr-tb;fill:#4c4c4c;fill-opacity:1;fill-rule:nonzero;stroke:none;font-family:Arial;-inkscape-font-specification:'Arial,Bold'"
               x="0"
               y="0"
               id="tspan3320">5</tspan>
          </text>
        </g>
      </g>
    </g>
  </g>
</svg>
