<?xml version="1.0" encoding="UTF-8" standalone="no"?>
<!-- Created with Inkscape (http://www.inkscape.org/) -->

<svg
   xmlns:dc="http://purl.org/dc/elements/1.1/"
   xmlns:cc="http://creativecommons.org/ns#"
   xmlns:rdf="http://www.w3.org/1999/02/22-rdf-syntax-ns#"
   xmlns:svg="http://www.w3.org/2000/svg"
   xmlns="http://www.w3.org/2000/svg"
   xmlns:sodipodi="http://sodipodi.sourceforge.net/DTD/sodipodi-0.dtd"
   xmlns:inkscape="http://www.inkscape.org/namespaces/inkscape"
   width="744.09448819"
   height="1052.3622047"
   id="svg2816"
   version="1.1"
   inkscape:version="0.47 r22583"
   sodipodi:docname="Neues Dokument 2">
  <sodipodi:namedview
     id="base"
     pagecolor="#ffffff"
     bordercolor="#ffffff"
     borderopacity="0.0"
     inkscape:pageopacity="0.0"
     inkscape:pageshadow="0"
     inkscape:zoom="0.98994949"
     inkscape:cx="4.3196461"
     inkscape:cy="811.01487"
     inkscape:document-units="px"
     inkscape:current-layer="layer1"
     showgrid="false"
     inkscape:window-width="1280"
     inkscape:window-height="962"
     inkscape:window-x="-8"
     inkscape:window-y="-8"
     inkscape:window-maximized="1" />
  <defs
     id="defs2818">
    <inkscape:perspective
       id="perspective2824"
       inkscape:persp3d-origin="372.04724 : 350.78739 : 1"
       inkscape:vp_z="744.09448 : 526.18109 : 1"
       inkscape:vp_y="0 : 1000 : 0"
       inkscape:vp_x="0 : 526.18109 : 1"
       sodipodi:type="inkscape:persp3d" />
    <inkscape:perspective
       sodipodi:type="inkscape:persp3d"
       inkscape:vp_x="0 : 0.5 : 1"
       inkscape:vp_y="0 : 1000 : 0"
       inkscape:vp_z="1 : 0.5 : 1"
       inkscape:persp3d-origin="0.5 : 0.33333333 : 1"
       id="perspective2834" />
    <inkscape:perspective
       sodipodi:type="inkscape:persp3d"
       inkscape:vp_x="0 : 0.5 : 1"
       inkscape:vp_y="0 : 1000 : 0"
       inkscape:vp_z="1 : 0.5 : 1"
       inkscape:persp3d-origin="0.5 : 0.33333333 : 1"
       id="perspective4153" />
    <clipPath
       id="clipPath2972"
       clipPathUnits="userSpaceOnUse">
      <path
         id="path2974"
         clip-rule="evenodd"
         d="M 0,0 780,0 780,540 0,540 0,0 z" />
    </clipPath>
    <clipPath
       id="clipPath2960"
       clipPathUnits="userSpaceOnUse">
      <path
         id="path2962"
         clip-rule="evenodd"
         d="M 0,0 780,0 780,540 0,540 0,0 z" />
    </clipPath>
    <clipPath
       id="clipPath2984"
       clipPathUnits="userSpaceOnUse">
      <path
         id="path2986"
         clip-rule="evenodd"
         d="M 0,0 780,0 780,540 0,540 0,0 z" />
    </clipPath>
    <clipPath
       id="clipPath2998"
       clipPathUnits="userSpaceOnUse">
      <path
         id="path3000"
         clip-rule="evenodd"
         d="M 0,0 780,0 780,540 0,540 0,0 z" />
    </clipPath>
    <clipPath
       id="clipPath3010"
       clipPathUnits="userSpaceOnUse">
      <path
         id="path3012"
         clip-rule="evenodd"
         d="M 0,0 780,0 780,540 0,540 0,0 z" />
    </clipPath>
    <clipPath
       id="clipPath3022"
       clipPathUnits="userSpaceOnUse">
      <path
         id="path3024"
         clip-rule="evenodd"
         d="M 0,0 780,0 780,540 0,540 0,0 z" />
    </clipPath>
    <clipPath
       id="clipPath3036"
       clipPathUnits="userSpaceOnUse">
      <path
         id="path3038"
         clip-rule="evenodd"
         d="M 0,0 780,0 780,540 0,540 0,0 z" />
    </clipPath>
    <clipPath
       id="clipPath3050"
       clipPathUnits="userSpaceOnUse">
      <path
         id="path3052"
         clip-rule="evenodd"
         d="M 0,0 780,0 780,540 0,540 0,0 z" />
    </clipPath>
    <clipPath
       id="clipPath3408"
       clipPathUnits="userSpaceOnUse">
      <path
         id="path3410"
         clip-rule="evenodd"
         d="M 0,0 780,0 780,540 0,540 0,0 z" />
    </clipPath>
    <clipPath
       id="clipPath3420"
       clipPathUnits="userSpaceOnUse">
      <path
         id="path3422"
         clip-rule="evenodd"
         d="M 0,0 780,0 780,540 0,540 0,0 z" />
    </clipPath>
    <clipPath
       id="clipPath3432"
       clipPathUnits="userSpaceOnUse">
      <path
         id="path3434"
         clip-rule="evenodd"
         d="M 0,0 780,0 780,540 0,540 0,0 z" />
    </clipPath>
  </defs>
  <metadata
     id="metadata2821">
    <rdf:RDF>
      <cc:Work
         rdf:about="">
        <dc:format>image/svg+xml</dc:format>
        <dc:type
           rdf:resource="http://purl.org/dc/dcmitype/StillImage" />
        <dc:title></dc:title>
      </cc:Work>
    </rdf:RDF>
  </metadata>
  <g
     id="layer1"
     inkscape:groupmode="layer"
     inkscape:label="Layer 1">
    <g
       id="g4073"
       transform="matrix(1.25,0,0,-1.25,-881.30269,590.85725)">
      <g
         id="g2968">
        <g
           id="g2970"
           clip-path="url(#clipPath2972)">
          <text
             transform="matrix(1,0,0,-1,677.06,298.66)"
             id="text2976">
            <tspan
               style="font-size:14.03999996px;font-variant:normal;font-weight:normal;writing-mode:lr-tb;fill:#000000;fill-opacity:1;fill-rule:nonzero;stroke:none;font-family:Arial;-inkscape-font-specification:Arial"
               x="0 7.8000002 15.6"
               y="0"
               sodipodi:role="line"
               id="tspan2978">300</tspan>
          </text>
        </g>
      </g>
      <g
         id="g3510">
        <path
           id="path2942"
           style="fill:#dddddd;fill-opacity:1;fill-rule:evenodd;stroke:none"
           d="m 445.25,191.5 212.5,0 0,212.5 -212.5,0 0,-212.5 z" />
        <path
           id="path2944"
           style="fill:none;stroke:#000000;stroke-width:0.85000002;stroke-linecap:butt;stroke-linejoin:miter;stroke-miterlimit:8;stroke-opacity:1;stroke-dasharray:none"
           d="m 445.25,191.5 212.5,0 0,212.5 -212.5,0 0,-212.5 z" />
        <path
           id="path2946"
           style="fill:#000000;fill-opacity:1;fill-rule:nonzero;stroke:none"
           d="m 671.8,395.5 0,-191.75 -1.35,0 0,191.75 1.35,0 z m -5.68,-1 5,10 5,-10 -10,0 z m 10,-189.75 -5,-10 -5,10 10,0 z" />
        <path
           id="path2948"
           style="fill:#000000;fill-opacity:1;fill-rule:nonzero;stroke:none"
           d="m 646,178.08 -191.75,0 0,1.35 191.75,0 0,-1.35 z m -1,5.67 10,-5 -10,-5 0,10 z m -189.75,-10 -10,5 10,5 0,-10 z" />
        <path
           id="path2950"
           style="fill:#000000;fill-opacity:1;fill-rule:nonzero;stroke:none"
           d="m 541.25,161.19 -87,-0.1 0,1.35 87,0.1 0,-1.35 z m -1.01,5.67 10.01,-4.98 -9.99,-5.02 -0.02,10 z m -84.98,-10.1 -10.01,4.99 9.99,5.01 0.02,-10 z" />
        <g
           id="g2952">
          <path
             id="path2954"
             style="fill:none;stroke:#000000;stroke-width:1.25;stroke-linecap:butt;stroke-linejoin:round;stroke-miterlimit:8;stroke-opacity:1;stroke-dasharray:1.25, 1.25;stroke-dashoffset:0"
             d="m 549.5,409.37 0,-255.99" />
        </g>
        <g
           id="g2956">
          <g
             clip-path="url(#clipPath2960)"
             id="g2958">
            <text
               id="text2964"
               transform="matrix(1,0,0,-1,484.27,146.38)">
              <tspan
                 id="tspan2966"
                 sodipodi:role="line"
                 y="0"
                 x="0 7.8000002 15.6"
                 style="font-size:14.03999996px;font-variant:normal;font-weight:normal;writing-mode:lr-tb;fill:#000000;fill-opacity:1;fill-rule:nonzero;stroke:none;font-family:Arial;-inkscape-font-specification:Arial">150</tspan>
            </text>
          </g>
        </g>
        <g
           id="g2980">
          <g
             clip-path="url(#clipPath2984)"
             id="g2982">
            <text
               id="text2988"
               transform="matrix(1,0,0,-1,588.94,160.63)">
              <tspan
                 id="tspan2990"
                 sodipodi:role="line"
                 y="0"
                 x="0 7.8000002 15.6"
                 style="font-size:14.03999996px;font-variant:normal;font-weight:normal;writing-mode:lr-tb;fill:#000000;fill-opacity:1;fill-rule:nonzero;stroke:none;font-family:Arial;-inkscape-font-specification:Arial">300</tspan>
            </text>
          </g>
        </g>
        <path
           id="path2992"
           style="fill:#000000;fill-opacity:1;fill-rule:nonzero;stroke:none"
           d="m 587.44,344.13 0.1,-87 -1.35,-0.01 -0.1,87 1.35,0.01 z m -5.68,-1.01 4.99,10.01 5.01,-10 -10,-0.01 z m 10.1,-84.99 -4.99,-10 -5.01,9.99 10,0.01 z" />
        <g
           id="g2994">
          <g
             clip-path="url(#clipPath2998)"
             id="g2996">
            <text
               id="text3002"
               transform="matrix(1,0,0,-1,589.56,309.55)">
              <tspan
                 id="tspan3004"
                 sodipodi:role="line"
                 y="0"
                 x="0 7.799984 15.599968"
                 style="font-size:14.06400013px;font-variant:normal;font-weight:normal;writing-mode:lr-tb;fill:#000000;fill-opacity:1;fill-rule:nonzero;stroke:none;font-family:Arial;-inkscape-font-specification:Arial">150</tspan>
            </text>
          </g>
        </g>
        <g
           id="g3006">
          <g
             clip-path="url(#clipPath3010)"
             id="g3008">
            <text
               id="text3014"
               transform="matrix(1,0,0,-1,522.05,282.96)">
              <tspan
                 id="tspan3016"
                 y="0"
                 x="0"
                 style="font-size:12px;font-variant:normal;font-weight:bold;writing-mode:lr-tb;fill:#4c4c4c;fill-opacity:1;fill-rule:nonzero;stroke:none;font-family:Arial;-inkscape-font-specification:'Arial,Bold'">1</tspan>
            </text>
          </g>
        </g>
        <g
           id="g3018">
          <g
             clip-path="url(#clipPath3022)"
             id="g3020">
            <text
               id="text3026"
               transform="matrix(1,0,0,-1,571.3,283.08)">
              <tspan
                 id="tspan3028"
                 y="0"
                 x="0"
                 style="font-size:12px;font-variant:normal;font-weight:bold;writing-mode:lr-tb;fill:#4c4c4c;fill-opacity:1;fill-rule:nonzero;stroke:none;font-family:Arial;-inkscape-font-specification:'Arial,Bold'">5</tspan>
            </text>
          </g>
        </g>
        <path
           id="path3030"
           style="fill:#000000;fill-opacity:1;fill-rule:nonzero;stroke:none"
           d="m 569.49,312.26 -39.75,0.5 0.02,1.35 39.75,-0.5 -0.02,-1.35 z m -0.95,3.69 5.96,-3.07 -6.04,-2.93 0.08,6 z m -37.83,-5.53 -5.96,3.08 6.04,2.92 -0.08,-6 z" />
        <g
           id="g3032">
          <g
             clip-path="url(#clipPath3036)"
             id="g3034">
            <text
               id="text3040"
               transform="matrix(1,0,0,-1,540.55,318.91)">
              <tspan
                 id="tspan3042"
                 sodipodi:role="line"
                 y="0"
                 x="0 7.8000002"
                 style="font-size:14.03999996px;font-variant:normal;font-weight:normal;writing-mode:lr-tb;fill:#000000;fill-opacity:1;fill-rule:nonzero;stroke:none;font-family:Arial;-inkscape-font-specification:Arial">60</tspan>
            </text>
          </g>
        </g>
        <path
           id="path3044"
           style="fill:#000000;fill-opacity:1;fill-rule:nonzero;stroke:none"
           d="m 461.94,395 0.1,-84.87 -1.35,-0.01 -0.1,84.88 1.35,0 z m -5.68,-1.01 4.99,10.01 5.01,-9.99 -10,-0.02 z m 10.1,-82.86 -4.99,-10 -5.01,9.99 10,0.01 z" />
        <g
           id="g3046">
          <g
             clip-path="url(#clipPath3050)"
             id="g3048">
            <text
               id="text3054"
               transform="matrix(1,0,0,-1,465.65,352.68)">
              <tspan
                 id="tspan3056"
                 sodipodi:role="line"
                 y="0"
                 x="0 7.8000002 15.6"
                 style="font-size:14.03999996px;font-variant:normal;font-weight:normal;writing-mode:lr-tb;fill:#000000;fill-opacity:1;fill-rule:nonzero;stroke:none;font-family:Arial;-inkscape-font-specification:Arial">150</tspan>
            </text>
          </g>
        </g>
        <g
           id="g3058">
          <path
             id="path3060"
             style="fill:none;stroke:#000000;stroke-width:1.25;stroke-linecap:butt;stroke-linejoin:round;stroke-miterlimit:8;stroke-opacity:1;stroke-dasharray:1.25, 1.25;stroke-dashoffset:0"
             d="M 667.75,300.63 441,299.88" />
        </g>
        <path
           id="path3062"
           style="fill:#4c4c4c;fill-opacity:1;fill-rule:evenodd;stroke:none"
           d="m 546.75,300.06 c 0,1.48 1.29,2.69 2.88,2.69 0,0 0,0 0,0 l 0,0 c 1.58,0 2.87,-1.21 2.87,-2.69 0,0 0,0 0,0 l 0,0 c 0,-1.49 -1.29,-2.69 -2.87,-2.69 0,0 0,0 0,0 l 0,0 c -1.59,0 -2.88,1.2 -2.88,2.69 0,0 0,0 0,0 z" />
        <path
           id="path3064"
           style="fill:none;stroke:#4c4c4c;stroke-width:0.85000002;stroke-linecap:butt;stroke-linejoin:round;stroke-miterlimit:8;stroke-opacity:1;stroke-dasharray:none"
           d="m 546.75,300.06 c 0,1.48 1.29,2.69 2.88,2.69 0,0 0,0 0,0 l 0,0 c 1.58,0 2.87,-1.21 2.87,-2.69 0,0 0,0 0,0 l 0,0 c 0,-1.49 -1.29,-2.69 -2.87,-2.69 0,0 0,0 0,0 l 0,0 c -1.59,0 -2.88,1.2 -2.88,2.69 0,0 0,0 0,0 z" />
        <path
           id="path3066"
           style="fill:#4c4c4c;fill-opacity:1;fill-rule:evenodd;stroke:none"
           d="m 523,299.94 c 0,1.49 1.29,2.69 2.88,2.69 0,0 0,0 0,0 l 0,0 c 1.58,0 2.87,-1.2 2.87,-2.69 0,0 0,0 0,0 l 0,0 c 0,-1.48 -1.29,-2.69 -2.87,-2.69 0,0 0,0 0,0 l 0,0 c -1.59,0 -2.88,1.21 -2.88,2.69 0,0 0,0 0,0 z" />
        <path
           id="path3068"
           style="fill:none;stroke:#4c4c4c;stroke-width:0.85000002;stroke-linecap:butt;stroke-linejoin:round;stroke-miterlimit:8;stroke-opacity:1;stroke-dasharray:none"
           d="m 523,299.94 c 0,1.49 1.29,2.69 2.88,2.69 0,0 0,0 0,0 l 0,0 c 1.58,0 2.87,-1.2 2.87,-2.69 0,0 0,0 0,0 l 0,0 c 0,-1.48 -1.29,-2.69 -2.87,-2.69 0,0 0,0 0,0 l 0,0 c -1.59,0 -2.88,1.21 -2.88,2.69 0,0 0,0 0,0 z" />
        <path
           id="path3070"
           style="fill:#4c4c4c;fill-opacity:1;fill-rule:evenodd;stroke:none"
           d="m 534.88,300.06 c 0,1.48 1.28,2.69 2.87,2.69 0,0 0,0 0,0 l 0,0 c 1.59,0 2.88,-1.21 2.88,-2.69 0,0 0,0 0,0 l 0,0 c 0,-1.49 -1.29,-2.69 -2.88,-2.69 0,0 0,0 0,0 l 0,0 c -1.59,0 -2.87,1.2 -2.87,2.69 0,0 0,0 0,0 z" />
        <path
           id="path3072"
           style="fill:none;stroke:#4c4c4c;stroke-width:0.85000002;stroke-linecap:butt;stroke-linejoin:round;stroke-miterlimit:8;stroke-opacity:1;stroke-dasharray:none"
           d="m 534.88,300.06 c 0,1.48 1.28,2.69 2.87,2.69 0,0 0,0 0,0 l 0,0 c 1.59,0 2.88,-1.21 2.88,-2.69 0,0 0,0 0,0 l 0,0 c 0,-1.49 -1.29,-2.69 -2.88,-2.69 0,0 0,0 0,0 l 0,0 c -1.59,0 -2.87,1.2 -2.87,2.69 0,0 0,0 0,0 z" />
        <path
           id="path3074"
           style="fill:#4c4c4c;fill-opacity:1;fill-rule:evenodd;stroke:none"
           d="m 558.63,299.94 c 0,1.49 1.28,2.69 2.87,2.69 0,0 0,0 0,0 l 0,0 c 1.59,0 2.88,-1.2 2.88,-2.69 0,0 0,0 0,0 l 0,0 c 0,-1.48 -1.29,-2.69 -2.88,-2.69 0,0 0,0 0,0 l 0,0 c -1.59,0 -2.87,1.21 -2.87,2.69 0,0 0,0 0,0 z" />
        <path
           id="path3076"
           style="fill:none;stroke:#4c4c4c;stroke-width:0.85000002;stroke-linecap:butt;stroke-linejoin:round;stroke-miterlimit:8;stroke-opacity:1;stroke-dasharray:none"
           d="m 558.63,299.94 c 0,1.49 1.28,2.69 2.87,2.69 0,0 0,0 0,0 l 0,0 c 1.59,0 2.88,-1.2 2.88,-2.69 0,0 0,0 0,0 l 0,0 c 0,-1.48 -1.29,-2.69 -2.88,-2.69 0,0 0,0 0,0 l 0,0 c -1.59,0 -2.87,1.21 -2.87,2.69 0,0 0,0 0,0 z" />
        <path
           id="path3078"
           style="fill:#4c4c4c;fill-opacity:1;fill-rule:evenodd;stroke:none"
           d="m 570.5,300.06 c 0,1.48 1.29,2.69 2.88,2.69 0,0 0,0 0,0 l 0,0 c 1.58,0 2.87,-1.21 2.87,-2.69 0,0 0,0 0,0 l 0,0 c 0,-1.49 -1.29,-2.69 -2.87,-2.69 0,0 0,0 0,0 l 0,0 c -1.59,0 -2.88,1.2 -2.88,2.69 0,0 0,0 0,0 z" />
        <path
           id="path3080"
           style="fill:none;stroke:#4c4c4c;stroke-width:0.85000002;stroke-linecap:butt;stroke-linejoin:round;stroke-miterlimit:8;stroke-opacity:1;stroke-dasharray:none"
           d="m 570.5,300.06 c 0,1.48 1.29,2.69 2.88,2.69 0,0 0,0 0,0 l 0,0 c 1.58,0 2.87,-1.21 2.87,-2.69 0,0 0,0 0,0 l 0,0 c 0,-1.49 -1.29,-2.69 -2.87,-2.69 0,0 0,0 0,0 l 0,0 c -1.59,0 -2.88,1.2 -2.88,2.69 0,0 0,0 0,0 z" />
        <path
           id="path3322"
           style="fill:none;stroke:#969696;stroke-width:1.75;stroke-linecap:butt;stroke-linejoin:round;stroke-miterlimit:8;stroke-opacity:1;stroke-dasharray:none"
           d="m 533.75,349.37 34,0" />
        <path
           id="path3324"
           style="fill:none;stroke:#686868;stroke-width:1.75;stroke-linecap:butt;stroke-linejoin:round;stroke-miterlimit:8;stroke-opacity:1;stroke-dasharray:none"
           d="m 531.5,248.5 34,0" />
        <path
           id="path3402"
           style="fill:#000000;fill-opacity:1;fill-rule:nonzero;stroke:none"
           d="m 538.84,291.09 -35.07,-42.52 -1.04,0.86 35.07,42.52 1.04,-0.86 z m -3.47,1.57 6.13,2.72 -1.5,-6.54 -4.63,3.82 z" />
        <g
           id="g3404">
          <g
             clip-path="url(#clipPath3408)"
             id="g3406">
            <text
               id="text3412"
               transform="matrix(1,0,0,-1,448.27,234.82)">
              <tspan
                 id="tspan3414"
                 sodipodi:role="line"
                 y="0"
                 x="0 8.0279999 14.736 20.736 24.072001 30.804001 37.512001 44.220001 47.099998 52.98 60.900002 64.236 67.727997 77.688004 84.396004 90.396004"
                 style="font-size:12px;font-variant:normal;font-weight:normal;writing-mode:lr-tb;fill:#000000;fill-opacity:1;fill-rule:nonzero;stroke:none;font-family:Arial;-inkscape-font-specification:Arial">Abstand zw. Mess</tspan>
            </text>
          </g>
        </g>
        <g
           id="g3416">
          <g
             clip-path="url(#clipPath3420)"
             id="g3418">
            <text
               id="text3424"
               transform="matrix(1,0,0,-1,544.78,234.82)">
              <tspan
                 id="tspan3426"
                 y="0"
                 x="0"
                 style="font-size:12px;font-variant:normal;font-weight:normal;writing-mode:lr-tb;fill:#000000;fill-opacity:1;fill-rule:nonzero;stroke:none;font-family:Arial;-inkscape-font-specification:Arial">-</tspan>
            </text>
          </g>
        </g>
        <g
           id="g3428">
          <g
             clip-path="url(#clipPath3432)"
             id="g3430">
            <text
               id="text3436"
               transform="matrix(1,0,0,-1,448.27,220.42)">
              <tspan
                 id="tspan3438"
                 sodipodi:role="line"
                 y="0"
                 x="0 6.7080002 13.416 20.124001 26.124001 29.459999 36.192001 42.792 45.672001 48.335999 55.007999 58.271999 64.980003 71.688004 74.928001 84.996002"
                 style="font-size:12px;font-variant:normal;font-weight:normal;writing-mode:lr-tb;fill:#000000;fill-opacity:1;fill-rule:nonzero;stroke:none;font-family:Arial;-inkscape-font-specification:Arial">punkten je 15 mm</tspan>
            </text>
          </g>
        </g>
      </g>
    </g>
  </g>
</svg>
