<?xml version="1.0" encoding="UTF-8" standalone="no"?>
<!-- Created with Inkscape (http://www.inkscape.org/) -->

<svg
   xmlns:dc="http://purl.org/dc/elements/1.1/"
   xmlns:cc="http://creativecommons.org/ns#"
   xmlns:rdf="http://www.w3.org/1999/02/22-rdf-syntax-ns#"
   xmlns:svg="http://www.w3.org/2000/svg"
   xmlns="http://www.w3.org/2000/svg"
   xmlns:sodipodi="http://sodipodi.sourceforge.net/DTD/sodipodi-0.dtd"
   xmlns:inkscape="http://www.inkscape.org/namespaces/inkscape"
   width="744.09448819"
   height="1052.3622047"
   id="svg2985"
   version="1.1"
   inkscape:version="0.48.1 r9760"
   sodipodi:docname="pyramide.svg">
  <sodipodi:namedview
     id="base"
     pagecolor="#ffffff"
     bordercolor="#ffffff"
     borderopacity="0.0"
     inkscape:pageopacity="0.0"
     inkscape:pageshadow="0"
     inkscape:zoom="0.25414479"
     inkscape:cx="1346.933"
     inkscape:cy="662.85713"
     inkscape:document-units="px"
     inkscape:current-layer="layer1"
     showgrid="false"
     inkscape:window-width="1280"
     inkscape:window-height="723"
     inkscape:window-x="0"
     inkscape:window-y="24"
     inkscape:window-maximized="1" />
  <defs
     id="defs2987" />
  <metadata
     id="metadata2990">
    <rdf:RDF>
      <cc:Work
         rdf:about="">
        <dc:format>image/svg+xml</dc:format>
        <dc:type
           rdf:resource="http://purl.org/dc/dcmitype/StillImage" />
        <dc:title />
      </cc:Work>
    </rdf:RDF>
  </metadata>
  <g
     inkscape:label="Layer 1"
     inkscape:groupmode="layer"
     id="layer1">
    <g
       transform="matrix(1.25,0,0,-1.25,-1231.3881,1309.0141)"
       inkscape:label="pyramide_isometrisch"
       id="g3020">
      <path
         id="path3022"
         style="fill:none;stroke:#999999;stroke-width:0.72000003;stroke-linecap:round;stroke-linejoin:round;stroke-miterlimit:10;stroke-opacity:1;stroke-dasharray:none"
         d="M 265.763,622.479 1267.962,43.859 m 0,578.62 0,-578.62 m -501.1,867.93 501.1,-289.31 m -501.1,289.31 -501.099,-289.31 M 1267.962,43.859 2270.16,622.479 m -501.099,289.31 501.099,-289.31 m -1002.198,0 501.099,289.31 m 501.099,-289.31 -1002.198,578.62 m 501.099,-289.31 -501.099,289.31 m 0,0 -1002.199,-578.62 m 1002.199,578.62 -501.1,-289.31 m 501.1,286.995 -998.19,-576.305 m 0,0 998.19,-576.305 m 0,0 998.189,576.305 m 0,0 -998.189,576.305 m -501.1,-289.31 -497.09,-286.995 m 998.19,-2.315 -501.1,289.31 m 501.1,-289.31 0,-573.99 m -501.1,863.3 501.1,289.31 m 501.099,-289.31 497.09,-286.995 m -998.189,576.305 501.099,-289.31 m 0,0 -501.099,-289.31 m 0,-599.449 -1042.287,601.764 m 0,-2.315 0,2.315 M 1267.962,18.4 225.675,620.164 M 1267.962,18.4 l 0,2.315 M 225.675,622.479 1267.962,1224.243 m 0,-2.314 0,2.314 M 225.675,620.164 1267.962,1221.929 m 0,2.314 1042.286,-601.764 m 0,-2.315 0,2.315 m -1042.286,599.45 1042.286,-601.765 m 0,2.315 L 1267.962,20.715 M 2310.248,620.164 1267.962,18.4 m 0,23.145 -1002.199,578.619 m 2004.397,0 L 1267.962,41.545 m 0,1157.239 1002.198,-578.62 m -2004.397,0 1002.199,578.62 M 2266.151,622.479 1267.962,46.174 m 0,0 -998.19,576.305 m 0,0 998.19,576.305 m 0,0 998.189,-576.305 m -998.189,-576.305 0,-4.629 m -998.19,580.934 -4.009,-2.315 m 2000.388,2.315 4.009,-2.315"
         inkscape:connector-curvature="0" />
      <path
         id="path3024"
         style="fill:none;stroke:#3b3b3b;stroke-width:0.72000003;stroke-linecap:round;stroke-linejoin:round;stroke-miterlimit:10;stroke-opacity:1;stroke-dasharray:none"
         d="M 225.675,622.479 1267.962,20.715 m 0,0 1042.286,601.764 m 0,0 -1042.286,601.764 m 0,0 L 225.675,622.479 M 1267.962,43.859 2270.16,622.479 m 0,0 -1002.198,578.62 m 0,0 -1002.199,-578.62 m 0,0 1002.199,-578.62 M 265.763,620.164 1267.962,41.545 m 0,0 1002.198,578.619 m 0,0 -1002.198,578.62 m 0,0 -1002.199,-578.62"
         inkscape:connector-curvature="0" />
      <path
         id="path3026"
         style="fill:none;stroke:#a8a8a8;stroke-width:0.72000003;stroke-linecap:round;stroke-linejoin:round;stroke-miterlimit:10;stroke-opacity:1;stroke-dasharray:none"
         d="m 229.279,622.479 -7.208,0 m 3.604,3.604 0,-7.208 0,3.604 m 0,0 130.913,-75.583 m 26.902,-15.116 5.76,7.2 m -5.76,0 5.76,-7.2 m -163.575,90.699 130.913,75.583 m 26.902,22.316 2.88,-3.6 2.88,3.6 m -2.88,-3.6 0,-3.6 m -160.695,-90.699 0,151.165 m 0.72,37.433 5.76,0 -5.76,-7.2 5.76,0 M 300.21,586.031 317.316,569.57 m -22.808,6.584 22.808,-6.584 m -91.641,52.909 68.396,-39.489 m 6.139,3.041 -1.01,0.516 -1.272,-0.09 -1.385,-0.686 -1.337,-1.202 -1.135,-1.579 -0.8,-1.772 -0.372,-1.759 0.098,-1.542 0.558,-1.146 0.953,-0.617 m 5.702,82.773 17.106,16.461 m -22.808,-6.584 22.808,6.584 m -91.641,-52.909 71.276,41.151 m 0,-4.703 -1.322,1.019 -1.179,1.417 -0.908,1.664 -0.539,1.728 -0.111,1.607 0.329,1.311 0.734,0.873 1.058,0.34 1.268,-0.23 1.341,-0.774 1.268,-1.235 1.058,-1.561 0.733,-1.72 0.329,-1.691 -0.11,-1.479 -0.539,-1.106 -0.908,-0.615 -1.179,-0.056 -1.323,0.508 m -76.978,46.325 5.702,23.045 m 5.702,-23.045 -5.702,23.045 m 0,-105.818 0,78.977 m -5.702,3.796 0.057,-1.133 0.714,-1.056 1.286,-0.856 1.71,-0.557 1.935,-0.194 1.935,0.194 1.709,0.557 1.287,0.856 0.713,1.056 0.058,1.133"
         inkscape:connector-curvature="0" />
    </g>
    <g
       transform="matrix(1.25,0,0,-1.25,1141.9154,1464.1963)"
       inkscape:label="pyramide_oben"
       id="g3059">
      <path
         id="path3061"
         style="fill:none;stroke:#999999;stroke-width:0.72000003;stroke-linecap:round;stroke-linejoin:round;stroke-miterlimit:10;stroke-opacity:1;stroke-dasharray:none"
         d="m 561.029,46.772 1417.323,0 m -354.331,354.33 354.331,-354.33 m -1062.992,354.33 708.661,0 m -708.661,0 -354.331,-354.33 m 1417.323,0 0,1417.322 m -354.331,-354.33 354.331,354.33 m -354.331,-1062.992 0,708.662 m 354.331,354.33 -1417.323,0 m 354.331,-354.33 -354.331,354.33 m 1062.992,-354.33 -708.661,0 m -354.331,354.33 0,-1417.322 m 354.331,1062.992 0,-708.662 m -351.496,1060.158 0,-1411.654 m 0,0 1411.653,0 m 0,0 0,1411.654 m 0,0 -1411.653,0 M 915.36,401.102 563.864,49.606 m 1060.157,351.496 -708.661,0 m 708.661,0 351.496,-351.496 M 915.36,1109.764 563.864,1461.26 M 915.36,401.102 l 0,708.662 m 708.661,0 351.496,351.496 M 915.36,1109.764 l 708.661,0 m 0,0 0,-708.662 m 382.677,-382.677 -1474.015,0 m 1474.015,0 -1474.015,0 m 0,0 0,1474.016 m 0,-1474.016 0,1474.016 m 0,0 1474.015,0 m -1474.015,0 1474.015,0 m 0,0 0,-1474.016 m 0,1474.016 0,-1474.016 m -28.346,28.347 -1417.323,0 m 1417.323,1417.322 0,-1417.322 m -1417.323,1417.322 1417.323,0 M 561.029,46.772 l 0,1417.322 m 1414.488,-2.834 0,-1411.654 m 0,0 -1411.653,0 m 0,0 0,1411.654 m 0,0 1411.653,0 m 0,-1411.654 2.835,-2.834 m -1414.488,2.834 -2.835,-2.834 m 2.835,1414.488 -2.835,2.834 m 1414.488,-2.834 2.835,2.834"
         inkscape:connector-curvature="0" />
      <path
         id="path3063"
         style="fill:none;stroke:#3b3b3b;stroke-width:0.72000003;stroke-linecap:round;stroke-linejoin:round;stroke-miterlimit:10;stroke-opacity:1;stroke-dasharray:none"
         d="m 532.683,18.425 1474.015,0 m 0,0 0,1474.016 m 0,0 -1474.015,0 m 0,0 0,-1474.016 m 1445.669,28.347 0,1417.322 m 0,0 -1417.323,0 m 0,0 0,-1417.322 m 0,0 1417.323,0 m -1417.323,0 1417.323,0 m 0,0 0,1417.322 m 0,0 -1417.323,0 m 0,0 0,-1417.322"
         inkscape:connector-curvature="0" />
      <path
         id="path3065"
         style="fill:none;stroke:#a8a8a8;stroke-width:0.72000003;stroke-linecap:round;stroke-linejoin:round;stroke-miterlimit:10;stroke-opacity:1;stroke-dasharray:none"
         d="m 536.286,18.425 -7.207,0 m 3.604,3.604 0,-7.207 0,3.603 m 0,0 185.391,0 m 37.798,0 5.76,7.2 m -5.76,0 5.76,-7.2 m -228.949,0 0,185.391 m 0.72,44.279 2.88,-3.6 2.88,3.6 m -2.88,-3.6 0,-3.6 m -2.88,-215.27 5.76,0 -5.76,-7.2 5.76,0 m 94.32,-5.76 28.8,5.76 m -28.8,5.76 28.8,-5.76 m -129.6,0 100.8,0 m 0,0 0,1.87 0,1.668 0,1.284 0,0.762 0,0.157 0,-0.466 0,-1.037 0,-1.496 0,-1.794 0,-1.896 0,-1.793 0,-1.497 0,-1.037 0,-0.465 0,0.156 0,0.762 0,1.284 0,1.668 0,1.87 m -95.04,100.8 -5.76,28.8 m -5.76,-28.8 5.76,28.8 m 0,-129.6 0,100.8 m 0,0 -1.871,0 -1.667,0 -1.284,0 -0.762,0 -0.157,0 0.466,0 1.037,0 1.496,0 1.794,0 1.896,0 1.793,0 1.496,0 1.038,0 0.465,0 -0.157,0 -0.761,0 -1.284,0 -1.668,0 -1.87,0 m 5.76,-100.8 c 0,3.178 -2.582,5.76 -5.76,5.76 -3.179,0 -5.76,-2.582 -5.76,-5.76 0,-3.178 2.581,-5.76 5.76,-5.76 3.16,0 5.76,2.6 5.76,5.76"
         inkscape:connector-curvature="0" />
    </g>
  </g>
</svg>
